<?xml version="1.0" encoding="UTF-8"?>
<svg id="Layer_1" data-name="Layer 1" xmlns="http://www.w3.org/2000/svg" viewBox="0 0 435.74 392.93">
  <defs>
    <style>
      .cls-1 {
        fill: none;
        stroke: #231f20;
        stroke-miterlimit: 10;
        stroke-width: 46px;
      }
    </style>
  </defs>
  <path class="cls-1" d="M38.98,128.34c17.56-26.58,38.85-50.69,63.04-71.42,6.41-5.49,13.2-10.84,21.18-13.57.08-.03.16-.05.24-.08,10.14-3.38,17.85,9.49,10.14,16.9-18.01,17.34-37.8,32.89-56.07,50.02-23.59,22.11-45.24,47.88-54.17,79.03-.41,1.44-.48,2.98-.06,4.42,2.11,7.24,12.2,4.25,17.82-.04,59.1-45.12,93.73-116.14,151.37-163.11,7.14-5.82,18.14-11.14,24.57-4.19,2.52,2.73,3.35,6.59,2.64,10.24-1.4,7.17-6.72,11.96-11.69,16.73-41.83,40.19-68.96,93.38-108.75,135.59-14.82,15.72-31.8,30.53-39.03,51.06-.7,1.99-.81,4.19-.03,6.15,2.6,6.5,11.42,4.4,17.04,1.08,26.62-15.69,46.47-40.53,64.32-65.74,34.73-49.03,66.36-103.57,118.03-134.23,7.2-4.27,19.11-6.5,21.39,1.98.77,2.86.04,5.91-1.65,8.33-7.4,10.59-16.73,19.58-26.02,28.5-59.94,57.55-120.84,114.92-169.64,182.18-3.57,4.92-7.17,10.12-8.12,16.13,0,.06-.02.12-.03.18-1.25,8.58,8.4,14.49,15.65,9.74,26.34-17.29,49.96-38.71,69.71-63.26,16.17-20.1,29.71-42.2,45.96-62.23,18.49-22.79,40.27-42.65,61.96-62.41l54.69-49.83c6.77-6.17,17.7-.55,16.42,8.51,0,.07-.02.13-.03.2-.99,6.52-4.58,12.32-8.13,17.88-14.52,22.82-29.53,45.4-46.65,66.35-46.78,57.26-112.31,103.53-148.05,173.34-2.07,4.05-4.04,8.33-5.48,12.72-3.79,11.52,8.99,21.45,19.2,14.91.06-.04.12-.08.19-.12,26.31-16.88,53.05-34.14,73.17-58.07,11.55-13.74,20.63-29.36,29.64-44.88,23.87-41.12,47.75-82.24,71.62-123.37,11.34-19.53,22.77-39.19,37.47-56.33,1.48-1.73,3-3.43,4.56-5.1,15.88-17.07,42.55,4.73,29.1,23.78-.12.17-.24.34-.36.51-45.6,64.26-113.32,109.39-164.16,169.58-15.58,18.45-29.5,38.23-43.4,57.98-6.7,9.53-13.41,19.05-20.11,28.58-3.65,5.19-6.85,13.39-1.54,16.87,45.98-25.61,74.68-72.96,103.72-116.85,17.55-26.52,37.22-53.42,61.15-73.95,5.77-4.96,13.31,3.51,7.8,8.75-2.49,2.37-4.95,4.77-7.37,7.21-18.94,19.06-35.57,40.26-52.15,61.4-19.77,25.22-39.77,50.81-52.48,80.23-2.35,5.44-4.41,11.56-4.25,17.35.19,6.58.1,13.18-.62,19.72-3.22,29.29,59.75-52.63,82.39-80.42,22.43-27.53,39.23-59.59,64.04-85.01,7.81-8,16.35-15.2,25.31-21.88,10.11-7.54,23.22,4.61,16.35,15.18-33.56,51.68-86.25,91.02-145.8,107.21"/>
</svg>