<svg width="27" height="27" viewBox="0 0 35 57" fill="none" xmlns="http://www.w3.org/2000/svg">
<path d="M0.648 41.52C0.648 39.5573 1.18133 38.192 2.248 37.424C3.31467 36.6133 4.616 36.208 6.152 36.208C7.64533 36.208 8.92533 36.6133 9.992 37.424C11.0587 38.192 11.592 39.5573 11.592 41.52C11.592 43.3973 11.0587 44.7627 9.992 45.616C8.92533 46.4267 7.64533 46.832 6.152 46.832C4.616 46.832 3.31467 46.4267 2.248 45.616C1.18133 44.7627 0.648 43.3973 0.648 41.52ZM0.648 15.728C0.648 13.7653 1.18133 12.4 2.248 11.632C3.31467 10.8213 4.616 10.416 6.152 10.416C7.64533 10.416 8.92533 10.8213 9.992 11.632C11.0587 12.4 11.592 13.7653 11.592 15.728C11.592 17.6053 11.0587 18.9707 9.992 19.824C8.92533 20.6347 7.64533 21.04 6.152 21.04C4.616 21.04 3.31467 20.6347 2.248 19.824C1.18133 18.9707 0.648 17.6053 0.648 15.728ZM34.386 28.464C34.386 31.8773 34.0447 35.2267 33.362 38.512C32.722 41.7973 31.698 44.912 30.29 47.856C28.9247 50.8427 27.154 53.5947 24.978 56.112H17.234C19.154 53.4667 20.754 50.6293 22.034 47.6C23.3567 44.6133 24.3593 41.4987 25.042 38.256C25.7247 34.9707 26.066 31.6853 26.066 28.4C26.066 25.0293 25.7247 21.7013 25.042 18.416C24.3593 15.1307 23.3567 11.952 22.034 8.88C20.754 5.808 19.1327 2.94933 17.17 0.303997H24.978C27.154 2.864 28.9247 5.65866 30.29 8.688C31.698 11.7173 32.722 14.896 33.362 18.224C34.0447 21.552 34.386 24.9653 34.386 28.464Z" fill="#441FD8"/>
</svg>
